<svg xmlns="http://www.w3.org/2000/svg" xml:space="preserve" width="64" height="64" viewBox="0 0 512.001 512.001"><path d="M468.568 381.518h15.229v24.347h-15.229zM468.567 415.16v15.939h-62.614v15.229h77.843V415.16zM54.227 192.424h70.46v15.229h-70.46z"/><path d="M347.419 159.198v-.001l-33.69-56.999H213.683l-33.69 56.999h-47.692v-28.5H46.614v28.5H15.412v314.635h496.589V159.198zm-125.047-41.771h82.668l24.688 41.77H197.684zm-160.529 28.5h55.229v13.163H61.843zm434.929 312.675H30.641V263.259h120.186a124 124 0 0 0-1.522 3.361c-.136.312-.264.627-.397.94a124 124 0 0 0-1.105 2.67c-.171.426-.335.855-.501 1.283q-.469 1.213-.912 2.436-.238.65-.466 1.302-.468 1.342-.906 2.697c-.11.338-.225.674-.332 1.014a126 126 0 0 0-1.107 3.709c-.077.274-.145.55-.22.824q-.403 1.471-.772 2.95c-.108.437-.209.874-.313 1.313q-.301 1.273-.575 2.55-.147.682-.286 1.367a123 123 0 0 0-.515 2.71c-.069.384-.143.766-.208 1.149q-.327 1.917-.596 3.847c-.024.178-.043.355-.066.533a130 130 0 0 0-.403 3.354c-.046.428-.083.858-.125 1.287a125 125 0 0 0-.324 4.062q-.085 1.36-.14 2.725c-.017.412-.039.823-.051 1.236-.041 1.31-.067 2.621-.067 3.935 0 68.809 55.98 124.789 124.789 124.789s124.788-55.98 124.788-124.789c0-1.314-.026-2.625-.067-3.935-.013-.412-.035-.824-.051-1.236a124 124 0 0 0-.236-4.12q-.1-1.335-.228-2.667c-.041-.429-.079-.859-.125-1.287a128 128 0 0 0-.401-3.342c-.024-.182-.043-.365-.068-.547a127 127 0 0 0-.595-3.845c-.065-.385-.139-.768-.208-1.151q-.242-1.356-.514-2.706-.14-.687-.287-1.372-.275-1.277-.574-2.546c-.104-.438-.205-.876-.313-1.314q-.369-1.48-.772-2.95c-.075-.274-.144-.55-.22-.824a122 122 0 0 0-1.107-3.709c-.107-.339-.222-.675-.332-1.014q-.437-1.353-.906-2.697c-.152-.435-.31-.868-.466-1.302q-.442-1.223-.912-2.436-.246-.643-.5-1.284-.536-1.337-1.103-2.663c-.135-.316-.263-.633-.4-.948a123 123 0 0 0-1.521-3.359h120.18v195.343zM154.146 316.51c0-20.13 5.505-39.807 15.919-56.906 16.317-26.788 42.486-44.805 72.404-50.619 6.904-1.342 14.008-2.034 21.236-2.034s14.333.692 21.236 2.034c29.918 5.814 56.086 23.831 72.403 50.619 10.415 17.098 15.919 36.776 15.919 56.906 0 60.411-49.148 109.56-109.559 109.56-54.747 0-100.245-40.365-108.295-92.897a110 110 0 0 1-1.263-16.663m342.626-68.483H368.038v.003c-.492-.749-1.002-1.486-1.511-2.223-.175-.254-.343-.513-.52-.764a127 127 0 0 0-2.224-3.076c-.216-.289-.442-.572-.66-.859a124 124 0 0 0-1.66-2.15c-.308-.387-.625-.766-.938-1.149-.488-.6-.976-1.2-1.474-1.79-.346-.41-.702-.811-1.054-1.217-.478-.551-.956-1.104-1.445-1.647-.373-.415-.753-.823-1.132-1.234a119 119 0 0 0-1.452-1.554q-.592-.617-1.192-1.224-.733-.749-1.476-1.484a146.392 146.392 0 0 0-2.753-2.632 127 127 0 0 0-4.135-3.672q-.802-.68-1.616-1.346c-.439-.36-.878-.721-1.322-1.075-.553-.442-1.113-.875-1.673-1.308-.444-.342-.886-.686-1.335-1.022-.581-.436-1.169-.861-1.757-1.286-.439-.317-.874-.638-1.318-.949-.624-.44-1.258-.867-1.891-1.295-.417-.282-.831-.57-1.251-.847-.71-.468-1.43-.921-2.149-1.375-.354-.223-.704-.454-1.061-.673a125 125 0 0 0-3.273-1.95c-18.801-10.797-40.26-16.504-62.06-16.504s-43.261 5.707-62.06 16.504a122 122 0 0 0-3.274 1.95c-.355.218-.703.448-1.056.67-.721.454-1.442.908-2.152 1.377-.42.277-.835.564-1.252.847-.634.428-1.267.856-1.892 1.295-.442.311-.876.63-1.314.946q-.887.637-1.76 1.288c-.448.335-.888.678-1.331 1.019-.562.434-1.123.868-1.678 1.311q-.663.531-1.318 1.072a123 123 0 0 0-2.918 2.469 121 121 0 0 0-2.835 2.552q-.764.71-1.516 1.432-.622.594-1.236 1.198-.746.738-1.479 1.487-.599.607-1.19 1.223-.732.771-1.451 1.553c-.379.41-.76.819-1.133 1.235-.487.542-.964 1.093-1.443 1.644-.352.406-.71.809-1.057 1.22-.497.589-.983 1.187-1.47 1.785-.314.385-.633.765-.941 1.153a127 127 0 0 0-1.66 2.15c-.218.287-.444.57-.66.859a124 124 0 0 0-2.224 3.076c-.177.253-.344.511-.52.764-.509.738-1.017 1.475-1.511 2.223H30.641v-73.603h466.131z"/><path d="M430.928 192.421v37.614h45.957v-37.614zm30.728 22.385h-15.499v-7.156h15.499zM297.228 256.831c-12.975 0-25.063 5.463-33.563 14.759-8.5-9.295-20.588-14.759-33.563-14.759-12.151 0-23.497 4.755-31.948 13.386-8.374 8.553-12.985 19.96-12.985 32.122 0 11.464 3.371 18.287 5.833 23.268l.155.311c10.031 20.32 61.783 63.553 67.651 68.415l4.846 4.016 4.856-4.003c5.92-4.881 58.116-48.27 67.718-68.537l.259-.546c2.292-4.82 5.755-12.103 5.755-22.925 0-25.093-20.194-45.507-45.014-45.507m25.506 61.893-.268.563c-.588 1.241-1.425 2.638-2.476 4.163-1.453 2.11-3.32 4.468-5.489 6.995-.661.771-1.356 1.56-2.072 2.361a216 216 0 0 1-4.812 5.198 321 321 0 0 1-5.905 6.01l-.003.003c-12.639 12.546-28.002 26.046-38.031 34.519-17.173-14.58-50.115-44.053-58.166-58.054a24 24 0 0 1-.701-1.306l-.157-.318c-2.092-4.235-4.256-8.615-4.256-16.521.001-16.977 13.049-30.277 29.706-30.277 11.287 0 21.565 6.216 26.822 16.219l6.74 12.826 6.74-12.826c5.257-10.004 15.535-16.219 26.821-16.219 16.702 0 29.785 13.3 29.785 30.278.001 7.385-2.272 12.167-4.278 16.386M81.842 38.17h15.229V92H81.842zM142.487 103.153l22.598-48.855 13.822 6.393-22.598 48.855zM0 60.69l13.821-6.394 22.598 48.856-13.822 6.393z"/></svg>