<?xml version="1.0" encoding="utf-8" ?><!-- created by svgstack.com | Attribution is required. --><svg xmlns="http://www.w3.org/2000/svg" xmlns:xlink="http://www.w3.org/1999/xlink" width="1024" height="1024"><path fill="#DC8A39" transform="scale(2 2)" d="M223.492 392.849C225.316 391.777 232.538 389.123 234.782 388.469C245.762 400.294 275.393 415.287 290.078 420.184C292.212 420.895 294.688 421.45 296.704 422.438C304.682 426.71 330.824 429.526 339.086 428.781C340.484 429.548 342.143 430.629 343.081 431.938C339.92 433.013 335.878 433.201 332.538 433.407C293.933 435.789 251.946 417.828 223.492 392.849Z"/><path fill="#FBE69D" transform="scale(2 2)" d="M234.782 388.469C244.752 383.423 253.053 378.158 262.531 372.443C263.257 373.223 264.84 373.385 265.823 374.122C273.492 379.869 281.949 385.457 290.675 389.417C294.882 392.041 310.743 396.446 311.745 397.388C305.998 406.041 304.64 412.801 296.704 422.438C294.688 421.45 292.212 420.895 290.078 420.184C275.393 415.287 245.762 400.294 234.782 388.469Z"/><path fill="#D62D41" transform="scale(2 2)" d="M318.722 94.3107C321.393 93.1274 326.496 82.7617 329.174 83.4904C327.007 87.7813 319.663 99.8391 320.147 104.109C321.106 100.989 322.711 97.5833 324.839 95.0985L324.32 96.09C327.093 93.0434 329.692 90.0563 333.349 88.0383C332.22 93.115 332.018 90.584 328.975 93.9956C325.914 97.4282 319.879 110.551 325.534 114.143C320.783 133.963 325.404 140.775 334.654 156.295C336.66 159.33 342.799 165.38 346.221 166.574C349.063 167.862 351.754 169.364 354.697 170.447C370.564 176.29 398.954 171.644 407.899 155.81C408.747 154.752 409.095 153.4 409.741 152.214C410.598 152.434 411.163 152.77 411.892 153.265C410.033 156.239 410.235 154.758 411.892 155.81L409.741 157.634C412.868 155.628 416.525 155.207 418.628 151.755C419.557 150.231 419.727 148.428 420.872 146.997C420.883 148.774 420.136 150.413 420.12 152.214C417.891 154.223 410.576 162.72 407.899 165.698C409.97 164.944 411.543 163.181 412.882 161.505C418.086 160.878 415.732 161.321 414.047 163.36L414.151 163.461C420.823 161.302 430.664 143.624 432.573 143.902L433.25 144.829C430.179 150.025 427.952 155.198 424.016 159.911C409.618 177.153 387.461 185.42 365.583 187.422C349.477 188.895 345.307 189.923 334.568 177.856C318.607 159.92 300.663 115.611 318.722 94.3107Z"/><defs><linearGradient id="gradient_0" gradientUnits="userSpaceOnUse" x1="315.68207" y1="131.66864" x2="337.03143" y2="121.7655"><stop offset="0" stop-color="#E9486B"/><stop offset="1" stop-color="#FF8890"/></linearGradient></defs><path fill="url(#gradient_0)" transform="scale(2 2)" d="M320.147 104.109C321.106 100.989 322.711 97.5833 324.839 95.0985L324.32 96.09C327.093 93.0434 329.692 90.0563 333.349 88.0383C332.22 93.115 332.018 90.584 328.975 93.9956C325.914 97.4282 319.879 110.551 325.534 114.143C320.783 133.963 325.404 140.775 334.654 156.295C333.838 156.198 323.889 146.928 321.772 144.829C323.136 148.983 326.654 154.575 327.438 157.714L327.26 157.644C319.277 141.831 312.645 121.172 320.147 104.109Z"/><defs><linearGradient id="gradient_1" gradientUnits="userSpaceOnUse" x1="377.70776" y1="179.95331" x2="384.49237" y2="146.90999"><stop offset="0" stop-color="#E94969"/><stop offset="1" stop-color="#F98895"/></linearGradient></defs><path fill="url(#gradient_1)" transform="scale(2 2)" d="M409.741 157.634C412.868 155.628 416.525 155.207 418.628 151.755C419.557 150.231 419.727 148.428 420.872 146.997C420.883 148.774 420.136 150.413 420.12 152.214C417.891 154.223 410.576 162.72 407.899 165.698C401.168 173.561 385.322 178.037 375.244 180.108C373.725 180.42 370.404 181.656 368.933 180.998C389.44 177.733 353.493 180.87 346.221 166.574C349.063 167.862 351.754 169.364 354.697 170.447C370.564 176.29 398.954 171.644 407.899 155.81C408.747 154.752 409.095 153.4 409.741 152.214C410.598 152.434 411.163 152.77 411.892 153.265C410.033 156.239 410.235 154.758 411.892 155.81L409.741 157.634Z"/><path fill="#E9496D" transform="scale(2 2)" d="M318.722 94.3107C327.254 77.4164 351.331 69.0964 368.236 77.8035C377.13 82.3847 381.22 88.8799 384.739 97.915C403.497 90.5698 425.751 99.3947 432.972 118.597C436.645 128.366 435.396 134.988 433.25 144.829L432.573 143.902C430.664 143.624 420.823 161.302 414.151 163.461L414.047 163.36C415.732 161.321 418.086 160.878 412.882 161.505C411.543 163.181 409.97 164.944 407.899 165.698C410.576 162.72 417.891 154.223 420.12 152.214C420.136 150.413 420.883 148.774 420.872 146.997C419.727 148.428 419.557 150.231 418.628 151.755C416.525 155.207 412.868 155.628 409.741 157.634L411.892 155.81C410.235 154.758 410.033 156.239 411.892 153.265C411.163 152.77 410.598 152.434 409.741 152.214C411.103 150.134 412.065 148.149 412.882 145.796C415.79 137.903 413.186 125.265 407.382 119.492C407.696 114.615 408.913 114.326 414.758 116.217C412.785 114.386 410.35 113.17 407.899 112.126C406.582 111.041 403.492 111.128 402.613 109.873C390.375 107.663 382.467 113.993 373.99 122.241C374.034 113.359 372.601 97.9098 364.208 92.8249C360.322 90.671 356.416 89.7769 352.04 89.2645C349.291 87.2197 342.117 89.7407 338.706 88.9569C339.712 87.8986 340.383 87.3246 341.936 87.3499L342.132 87.009C339.996 85.1848 335.39 87.0043 333.349 88.0383C329.692 90.0563 327.093 93.0434 324.32 96.09L324.839 95.0985C322.711 97.5833 321.106 100.989 320.147 104.109C319.663 99.8391 327.007 87.7813 329.174 83.4904C326.496 82.7617 321.393 93.1274 318.722 94.3107Z"/><path fill="#F38591" transform="scale(2 2)" d="M412.882 112.126C411.948 111.618 411.026 111.679 410.006 111.844L409.841 111.569L410.111 111.311C407.855 110.53 405.604 109.735 403.328 109.014C406.342 104.171 419.995 112.636 422.787 116.602C428.446 124.643 425.887 144.702 420.12 152.214C420.136 150.413 420.883 148.774 420.872 146.997C424.731 140.475 424.809 130.322 422.747 123.257C420.987 117.231 418.202 115.046 412.882 112.126Z"/><path fill="#FCA3AB" transform="scale(2 2)" d="M402.613 109.873C404.407 109.49 410.308 112.609 412.032 113.577L412.882 113.46L413.04 113.122C412.545 112.903 412.239 112.821 411.871 112.422L412.882 112.126C418.202 115.046 420.987 117.231 422.747 123.257C424.809 130.322 424.731 140.475 420.872 146.997C419.727 148.428 419.557 150.231 418.628 151.755C416.525 155.207 412.868 155.628 409.741 157.634L411.892 155.81C410.235 154.758 410.033 156.239 411.892 153.265C411.163 152.77 410.598 152.434 409.741 152.214C411.103 150.134 412.065 148.149 412.882 145.796C413.989 147.379 412.643 151.366 413.506 151.959C415.603 151.641 417.832 148.546 419.153 146.997L420.12 145.796C421.096 143.111 421.639 140.376 422.206 137.587C422.45 127.367 421.809 123.714 414.758 116.217C412.785 114.386 410.35 113.17 407.899 112.126C406.582 111.041 403.492 111.128 402.613 109.873Z"/><defs><linearGradient id="gradient_2" gradientUnits="userSpaceOnUse" x1="407.60635" y1="134.84114" x2="422.16302" y2="129.98256"><stop offset="0" stop-color="#FEE1E3"/><stop offset="1" stop-color="#FEFFFF"/></linearGradient></defs><path fill="url(#gradient_2)" transform="scale(2 2)" d="M407.382 119.492C407.696 114.615 408.913 114.326 414.758 116.217C421.809 123.714 422.45 127.367 422.206 137.587C421.639 140.376 421.096 143.111 420.12 145.796L419.153 146.997C417.832 148.546 415.603 151.641 413.506 151.959C412.643 151.366 413.989 147.379 412.882 145.796C415.79 137.903 413.186 125.265 407.382 119.492Z"/><path fill="#E8AD4A" transform="scale(2 2)" d="M318.722 398.753C333.366 402.859 357.535 397.843 372.833 395.996C392.094 393.67 409.795 386.679 421.803 370.58C422.923 369.079 424.193 366.614 425.428 365.396L425.87 366.281C421.771 383.896 403.862 407.336 389.165 416.42C383.36 420.009 372.326 426.748 365.735 427.916C356.445 436.554 354.234 437.197 343.081 431.938C342.143 430.629 340.484 429.548 339.086 428.781C330.824 429.526 304.682 426.71 296.704 422.438C304.64 412.801 305.998 406.041 311.745 397.388C313.883 398.233 316.449 398.434 318.722 398.753Z"/><path fill="#E9496D" transform="scale(2 2)" d="M350.886 407.126C356.754 399.918 366.945 397.19 370.685 407.268C373.799 415.659 368.662 421.164 365.735 427.916C356.445 436.554 354.234 437.197 343.081 431.938C342.143 430.629 340.484 429.548 339.086 428.781C322.98 412.883 338.219 398.97 350.886 407.126Z"/><path fill="#EE49A4" transform="scale(2 2)" d="M369.14 407.918C371.144 412.072 364.742 419.213 362.051 421.711C355.395 427.889 341.456 419.265 338.478 413.4L338.343 413.482C338.528 419.734 338.466 417.49 337.417 412.66C338.149 410.91 339.058 408.945 340.742 407.918C340.436 408.881 339.741 409.55 339.086 410.294C339.997 412.573 341.077 414.585 343.201 415.977C360.518 427.324 360.819 422.636 369.14 407.918Z"/><defs><linearGradient id="gradient_3" gradientUnits="userSpaceOnUse" x1="350.90671" y1="420.90121" x2="355.31091" y2="401.8212"><stop offset="0" stop-color="#F156AF"/><stop offset="1" stop-color="#F997DF"/></linearGradient></defs><path fill="url(#gradient_3)" transform="scale(2 2)" d="M353.738 411.561C358.361 405.795 363.392 397.909 369.14 407.918C360.819 422.636 360.518 427.324 343.201 415.977C341.077 414.585 339.997 412.573 339.086 410.294C339.741 409.55 340.436 408.881 340.742 407.918C341.69 407.264 342.993 407.247 344.105 407.126C348.25 407.706 350.07 410.232 353.738 411.561Z"/><defs><linearGradient id="gradient_4" gradientUnits="userSpaceOnUse" x1="349.02087" y1="168.09076" x2="384.93863" y2="99.882683"><stop offset="0" stop-color="#E02D4A"/><stop offset="1" stop-color="#F4ABB5"/></linearGradient></defs><path fill="url(#gradient_4)" transform="scale(2 2)" d="M333.349 88.0383C335.39 87.0043 339.996 85.1848 342.132 87.009L341.936 87.3499C340.383 87.3246 339.712 87.8986 338.706 88.9569C342.117 89.7407 349.291 87.2197 352.04 89.2645C356.416 89.7769 360.322 90.671 364.208 92.8249C372.601 97.9098 374.034 113.359 373.99 122.241C382.467 113.993 390.375 107.663 402.613 109.873C403.492 111.128 406.582 111.041 407.899 112.126C410.35 113.17 412.785 114.386 414.758 116.217C408.913 114.326 407.696 114.615 407.382 119.492C413.186 125.265 415.79 137.903 412.882 145.796C412.065 148.149 411.103 150.134 409.741 152.214C409.095 153.4 408.747 154.752 407.899 155.81C398.954 171.644 370.564 176.29 354.697 170.447C351.754 169.364 349.063 167.862 346.221 166.574C342.799 165.38 336.66 159.33 334.654 156.295C325.404 140.775 320.783 133.963 325.534 114.143C319.879 110.551 325.914 97.4282 328.975 93.9956C332.018 90.584 332.22 93.115 333.349 88.0383Z"/><path fill="#FCCCD1" transform="scale(2 2)" d="M409.741 113.46C409.057 113.068 408.411 112.743 407.899 112.126C410.35 113.17 412.785 114.386 414.758 116.217C408.913 114.326 407.696 114.615 407.382 119.492C406.235 117.889 404.979 116.365 403.756 114.818C404.194 114.892 405.022 115.873 405.378 116.217C406.762 114.551 407.748 114.115 409.741 113.46Z"/><defs><linearGradient id="gradient_5" gradientUnits="userSpaceOnUse" x1="345.14316" y1="99.284424" x2="341.68329" y2="89.081429"><stop offset="0" stop-color="#FFEFF1"/><stop offset="1" stop-color="#FDFFFF"/></linearGradient></defs><path fill="url(#gradient_5)" transform="scale(2 2)" d="M333.349 88.0383C335.39 87.0043 339.996 85.1848 342.132 87.009L341.936 87.3499C340.383 87.3246 339.712 87.8986 338.706 88.9569C342.117 89.7407 349.291 87.2197 352.04 89.2645C356.416 89.7769 360.322 90.671 364.208 92.8249L364.061 93.6302C362.399 94.3517 358.952 93.7976 357.062 93.8309C347.369 94.0015 337.192 97.8882 330.618 105.205C329.013 107.154 327.047 109.541 326.652 112.126C326.262 112.783 325.824 113.438 325.534 114.143C319.879 110.551 325.914 97.4282 328.975 93.9956C332.018 90.584 332.22 93.115 333.349 88.0383Z"/><path fill="#FCA3AB" transform="scale(2 2)" d="M333.349 88.0383C335.39 87.0043 339.996 85.1848 342.132 87.009L341.936 87.3499C340.383 87.3246 339.712 87.8986 338.706 88.9569C342.117 89.7407 349.291 87.2197 352.04 89.2645C344.075 89.1342 336.682 88.5531 330.514 94.5311C328.241 96.7343 325.134 101.31 326.364 104.685C327.531 105.791 329.162 105.165 330.618 105.205C329.013 107.154 327.047 109.541 326.652 112.126C326.262 112.783 325.824 113.438 325.534 114.143C319.879 110.551 325.914 97.4282 328.975 93.9956C332.018 90.584 332.22 93.115 333.349 88.0383Z"/><path fill="#EBCC96" transform="scale(2 2)" d="M318.722 211.082C323.601 211.465 329.017 214.252 333.467 216.2C378.528 235.938 437.496 285.521 433.07 340.249C432.571 346.431 429.983 362.486 425.87 366.281L425.428 365.396C424.193 366.614 422.923 369.079 421.803 370.58C409.795 386.679 392.094 393.67 372.833 395.996C357.535 397.843 333.366 402.859 318.722 398.753C316.449 398.434 313.883 398.233 311.745 397.388C310.743 396.446 294.882 392.041 290.675 389.417C281.949 385.457 273.492 379.869 265.823 374.122C264.84 373.385 263.257 373.223 262.531 372.443C264.146 371.23 265.622 370.389 267.481 369.633C269.802 366.34 272.884 363.696 276.542 363.091L276.221 362.77C276.724 361.169 282.399 358.014 283.523 355.709C309.419 326.525 327.834 305.772 332.076 264.042C331.893 261.607 332.137 259.069 332.18 256.624C332.4 243.96 329.893 237.211 328.171 225.895L328.13 225.614C327.3 223.613 326.358 222.013 325.044 220.302C323.057 217.144 320.629 214.277 318.722 211.082ZM332.076 264.042C327.834 305.772 309.419 326.525 283.523 355.709C287.069 356.945 290.198 359.089 293.499 360.833C322.964 376.4 372.409 386.007 399.105 360.235C394.893 320.944 373.387 292.639 340.95 270.422C337.946 268.364 334.814 266.457 332.076 264.042Z"/><path fill="#FBE69D" transform="scale(2 2)" d="M325.044 220.302C329.097 217.828 335.895 226.266 338.873 224.276C357.922 233.85 363.41 236.872 379.617 251.885C383.507 255.489 384.757 255.128 388.244 260.211C392.162 262.744 401.467 279.664 404.45 284.966L404.335 285.158C402.145 281.448 400.003 277.531 397.424 274.07C396.254 272.499 394.546 271.391 393.312 269.874C391.363 267.087 388.728 264.387 387.078 261.633C382.79 254.94 354.976 228.534 346.864 229.697C346.926 230.238 347.385 230.44 347.791 230.782C343.968 228.856 339.784 227.795 336.05 225.893C333.803 224.75 329.252 220.358 326.599 221.136C326.736 222.402 328.039 224.374 329.015 225.21L329.001 225.614L328.13 225.614C327.3 223.613 326.358 222.013 325.044 220.302Z"/><path fill="#FBF9E9" transform="scale(2 2)" d="M267.481 369.633C275.664 376.798 282.104 380.887 291.762 385.849C296.249 388.062 300.62 390.039 305.444 391.423C306.572 391.747 327.003 397.763 318.722 394.975C318.219 395.968 317.718 396.947 317.308 397.984L317.484 398.273C318.831 398.333 322.076 398.397 318.722 398.753C316.449 398.434 313.883 398.233 311.745 397.388C310.743 396.446 294.882 392.041 290.675 389.417C281.949 385.457 273.492 379.869 265.823 374.122C264.84 373.385 263.257 373.223 262.531 372.443C264.146 371.23 265.622 370.389 267.481 369.633Z"/><path fill="#FBF9E9" transform="scale(2 2)" d="M329.001 225.614L329.015 225.21C328.039 224.374 326.736 222.402 326.599 221.136C329.252 220.358 333.803 224.75 336.05 225.893C339.784 227.795 343.968 228.856 347.791 230.782C347.385 230.44 346.926 230.238 346.864 229.697C354.976 228.534 382.79 254.94 387.078 261.633C388.728 264.387 391.363 267.087 393.312 269.874L392.766 270.645C393.428 272.807 399.268 278.382 399.174 279.691L399.105 279.77C394.05 274.319 385.108 261.017 378.928 257.872C376.418 253.028 363.217 244.779 358.366 241.485C348.778 235.379 339.293 230.36 329.001 225.614Z"/><defs><linearGradient id="gradient_6" gradientUnits="userSpaceOnUse" x1="367.89603" y1="357.6124" x2="373.58813" y2="227.96866"><stop offset="0" stop-color="#6971B1"/><stop offset="1" stop-color="#BBEDFC"/></linearGradient></defs><path fill="url(#gradient_6)" transform="scale(2 2)" d="M328.13 225.614L329.001 225.614C339.293 230.36 348.778 235.379 358.366 241.485C363.217 244.779 376.418 253.028 378.928 257.872C385.108 261.017 394.05 274.319 399.105 279.77C413.976 304.268 425.577 338.421 399.105 360.235C394.893 320.944 373.387 292.639 340.95 270.422C337.946 268.364 334.814 266.457 332.076 264.042C331.893 261.607 332.137 259.069 332.18 256.624C332.4 243.96 329.893 237.211 328.171 225.895L328.13 225.614Z"/><path fill="#AFE1F6" transform="scale(2 2)" d="M358.366 241.485C363.217 244.779 376.418 253.028 378.928 257.872C376.859 256.753 375.108 254.115 373.141 252.655L373.078 253.223L372.968 252.819C372.715 253.185 372.415 253.529 372.139 253.877L371.675 253.886C369.725 251.298 367.929 254.105 365.28 253.243C361.195 251.912 356.745 245.918 358.366 241.485Z"/><defs><linearGradient id="gradient_7" gradientUnits="userSpaceOnUse" x1="76.614265" y1="326.60522" x2="312.16599" y2="210.00108"><stop offset="0" stop-color="#EDA44C"/><stop offset="1" stop-color="#F5C054"/></linearGradient></defs><path fill="url(#gradient_7)" transform="scale(2 2)" d="M90.0534 352.8C80.2969 343.072 76.8079 320.414 78.0408 307.363C85.1985 231.593 180.893 154 256.219 161.887C272.017 163.541 290.963 173.522 301.148 186.028C304.773 191.517 317.451 207.284 318.722 211.082C320.629 214.277 323.057 217.144 325.044 220.302C326.358 222.013 327.3 223.613 328.13 225.614L328.171 225.895C329.893 237.211 332.4 243.96 332.18 256.624C332.137 259.069 331.893 261.607 332.076 264.042C327.834 305.772 309.419 326.525 283.523 355.709C282.399 358.014 276.724 361.169 276.221 362.77L276.542 363.091C272.884 363.696 269.802 366.34 267.481 369.633C265.622 370.389 264.146 371.23 262.531 372.443C253.053 378.158 244.752 383.423 234.782 388.469C232.538 389.123 225.316 391.777 223.492 392.849C195.37 403.021 153.614 409.64 126.047 393.861C111.838 385.728 98.5885 366.707 90.0534 352.8ZM264.637 204.566C214.092 202.962 171.19 232.327 141.353 270.708C129.941 287.104 111.445 320.879 119.873 341.783C121.22 345.036 129.723 346.428 132.802 347.111C157.691 352.639 168.221 344.716 189.041 341.841L189.486 341.783C197.44 336.927 206.808 334.894 214.696 329.678C221.557 325.049 228.359 320.73 234.782 315.473C254.703 298.594 273.205 275.005 280.9 249.761C284.439 240.853 285.03 229.778 285.014 220.302C284.732 217.071 284.275 205.865 280.9 204.566C276.904 204.458 272.867 204.643 268.857 204.566C267.487 204.451 266.018 204.556 264.637 204.566ZM176.448 187.817C175.916 187.82 175.375 187.846 174.844 187.817C168.135 193.498 159.264 196.441 152.265 201.89C149.909 203.724 147.729 205.911 145.546 207.951C144.976 208.959 144.453 210.198 145.546 211.082C151.128 205.665 161.034 198.146 167.942 194.832C171.189 192.563 174.982 190.842 178.518 189.076C177.956 188.192 177.546 187.896 176.448 187.817Z"/><path fill="#EBCC96" transform="scale(2 2)" d="M199.356 179.675C204.01 177.678 210.485 176.363 215.531 176.946C214.194 177.611 204.853 179.757 203.891 179.675C202.702 178.844 200.699 179.463 199.356 179.675Z"/><path fill="#FBE69D" transform="scale(2 2)" d="M199.356 179.675C200.699 179.463 202.702 178.844 203.891 179.675C199.678 180.51 194.808 181.756 190.948 183.666C186.588 184.998 182.756 187.783 178.518 189.076C177.956 188.192 177.546 187.896 176.448 187.817C178.813 184.811 195.299 179.702 199.356 179.675Z"/><path fill="#FBD55A" transform="scale(2 2)" d="M118.008 237.517C119.092 230.162 139.674 213.721 144.661 206.584C143.431 206.836 135.015 214.52 133.672 215.907L133.219 215.882C140.067 209.308 154.362 196.71 162.999 192.726L163.213 192.872C160.336 196.164 150.577 198.899 146.654 205.061C147.812 204.961 170.144 188.356 174.844 187.817C168.135 193.498 159.264 196.441 152.265 201.89C149.909 203.724 147.729 205.911 145.546 207.951C135.875 213.04 130.341 223.157 123.266 230.964C121.944 232.025 120.829 233.501 119.873 234.893C119.103 235.683 118.68 236.662 118.008 237.517Z"/><path fill="#FBF9E9" transform="scale(2 2)" d="M145.546 207.951C144.976 208.959 144.453 210.198 145.546 211.082C140.889 215.273 136.245 219.54 132.316 224.439C131.289 225.486 129.923 227.306 128.704 228.028C127.417 228.939 124.834 230.969 123.266 230.964C130.341 223.157 135.875 213.04 145.546 207.951Z"/><path fill="#DA4B20" transform="scale(2 2)" d="M259.202 183.666C260.302 184.034 261.407 184.328 262.531 184.611C271.163 188.091 277.59 196.342 281.84 204.267L281.77 204.546L280.9 204.566C276.904 204.458 272.867 204.643 268.857 204.566C267.487 204.451 266.018 204.556 264.637 204.566C263.062 204.129 261.218 204.159 259.586 203.912C262.123 200.662 258.437 187.472 259.202 183.666Z"/><path fill="#FBD55A" transform="scale(2 2)" d="M216.816 355.709C217.706 356.986 217.685 361.151 218.117 362.958C218.849 366.023 222.242 371.637 223.58 375.178C224.984 378.898 223.938 381.909 227.801 381.856C223.438 384.431 218.431 385.651 213.921 387.88C213.214 387.722 212.64 387.856 211.969 388.061C206.895 381.498 206.463 369.675 198.12 362.837C196.074 363.957 194.054 365.124 192.028 366.281C188.922 364.661 178.032 370.562 174.844 369.633C183.108 365.806 192.505 366.92 199.885 360.726L199.773 360.432C195.704 359.878 191.014 358.356 186.642 360.544C183.826 361.953 179.577 365.341 175.884 365.156L176.056 365.161L175.878 364.668C182.964 363.998 187.575 356.62 196.939 359.071C201.65 360.303 201.51 360.338 206.513 359.023C208.556 359.478 214.832 356.724 216.816 355.709Z"/><path fill="#FBE69D" transform="scale(2 2)" d="M206.513 359.023L205.876 358.909C206.744 357.122 212.308 354.926 214.252 353.388C216.297 351.771 217.808 349.409 219.841 347.683C227.656 341.048 235.984 334.572 244.407 328.741C249.067 325.515 255.504 318.08 259.561 314.024C267.97 305.616 287.686 288.075 288.064 275.564L288.015 276.088L287.841 275.57L287.956 275.409C287.218 276.959 285.485 280.093 284.09 281.124C284.697 279.232 287.864 275.184 289.054 273.019C292.882 266.054 297.23 257.537 300.688 250.451C301.128 252.943 301.315 250.198 301.395 248.521C301.742 249.401 301.28 250.729 301.277 251.713L301.601 251.894C303.344 250.848 304.444 253.516 305.865 248.724L306.318 247.216L306.58 247.295C306.207 248.701 305.839 250.104 305.399 251.49C302.842 254.042 301.746 259.334 301.148 262.825C298.178 270.305 289.653 285.561 288.029 291.453C285.222 293.839 282.769 297.036 280.9 300.212C277.875 304.633 275.523 309.967 271.67 313.712C267.616 317.416 261.549 323.572 258.112 327.953C242.476 343.669 235.438 346.228 217.882 355.709L216.816 355.709C214.832 356.724 208.556 359.478 206.513 359.023L206.513 359.023Z"/><path fill="#EBCC96" transform="scale(2 2)" d="M222.258 350.175C224.025 347.757 225.269 346.09 228.55 346.343C226.616 348.041 224.937 349.878 222.258 350.175Z"/><defs><linearGradient id="gradient_8" gradientUnits="userSpaceOnUse" x1="243.37831" y1="333.48959" x2="246.60985" y2="337.62366"><stop offset="0" stop-color="#FAF2D6"/><stop offset="1" stop-color="white"/></linearGradient></defs><path fill="url(#gradient_8)" transform="scale(2 2)" d="M228.55 346.343C239.612 337.547 250.433 332.349 261.408 321.384C263.323 319.47 268.643 312.796 271.195 312.457L271.621 312.801L271.67 313.712C267.616 317.416 261.549 323.572 258.112 327.953C242.476 343.669 235.438 346.228 217.882 355.709C217.472 355.607 217.071 355.526 216.652 355.483L216.816 354.193C218.673 352.919 220.457 351.526 222.258 350.175C224.937 349.878 226.616 348.041 228.55 346.343Z"/><defs><linearGradient id="gradient_9" gradientUnits="userSpaceOnUse" x1="197.94986" y1="273.95618" x2="145.71455" y2="212.70663"><stop offset="0" stop-color="#DD4514"/><stop offset="1" stop-color="#FECD4F"/></linearGradient></defs><path fill="url(#gradient_9)" transform="scale(2 2)" d="M190.948 183.666C190.122 184.978 173.739 191.047 170.504 193.987L170.681 194.265L170.485 194.171C170.896 194.087 191.065 185.131 192.027 184.578C193.862 183.522 196.473 183.564 198.493 182.957C215.075 177.974 246.936 174.106 262.531 184.611C261.407 184.328 260.302 184.034 259.202 183.666C258.437 187.472 262.123 200.662 259.586 203.912C261.218 204.159 263.062 204.129 264.637 204.566C214.092 202.962 171.19 232.327 141.353 270.708C129.941 287.104 111.445 320.879 119.873 341.783C112.394 341.073 103.467 328.128 100.681 321.878C91.6947 301.721 98.4351 282.917 105.633 264.042C101.864 259.169 114.986 241.921 118.008 237.517C118.68 236.662 119.103 235.683 119.873 234.893C120.829 233.501 121.944 232.025 123.266 230.964C124.834 230.969 127.417 228.939 128.704 228.028C129.923 227.306 131.289 225.486 132.316 224.439C136.245 219.54 140.889 215.273 145.546 211.082C151.128 205.665 161.034 198.146 167.942 194.832C171.189 192.563 174.982 190.842 178.518 189.076C182.756 187.783 186.588 184.998 190.948 183.666Z"/><path fill="#FBE69D" transform="scale(2 2)" d="M123.266 230.964C124.834 230.969 127.417 228.939 128.704 228.028C126.474 230.775 123.83 233.202 122.085 236.308L122.085 236.308L121.768 236.278L121.716 235.944C122.214 234.875 122.942 234.063 123.696 233.17C122.467 231.192 120.976 234.515 119.873 234.893C120.829 233.501 121.944 232.025 123.266 230.964Z"/><path fill="#FBD55A" transform="scale(2 2)" d="M122.085 236.308C123.615 235.485 124.778 233.493 125.761 232.087C125.841 232.749 124.673 233.981 124.24 234.556L124.425 234.893C122.04 238.268 109.318 258.128 107.953 258.833C110.182 250.306 117.029 243.308 122.085 236.308L122.085 236.308Z"/><path fill="#FBD55A" transform="scale(2 2)" d="M145.546 211.082C151.128 205.665 161.034 198.146 167.942 194.832L168.904 194.897C166.715 198.002 152.419 207.433 147.879 211.118C144.655 213.735 135.09 223.749 132.316 224.439C136.245 219.54 140.889 215.273 145.546 211.082Z"/><path fill="#EBCC96" transform="scale(2 2)" d="M119.873 234.893C120.976 234.515 122.467 231.192 123.696 233.17C122.942 234.063 122.214 234.875 121.716 235.944L121.768 236.278L122.085 236.308C117.029 243.308 110.182 250.306 107.953 258.833C107.183 260.535 106.238 262.283 105.633 264.042C101.864 259.169 114.986 241.921 118.008 237.517C118.68 236.662 119.103 235.683 119.873 234.893Z"/><path fill="#FBD55A" transform="scale(2 2)" d="M139.706 224.439C149.905 223.769 155.59 229.649 153.082 239.712L152.87 239.035C154.717 234.662 152.748 228.962 148.545 234.893C146.044 236.336 143.309 238.107 141.353 240.24L137.774 240.24C126.924 233.648 147.124 223.947 138.675 224.753L139.706 224.439Z"/><defs><linearGradient id="gradient_10" gradientUnits="userSpaceOnUse" x1="188.98959" y1="230.91495" x2="243.04372" y2="385.35989"><stop offset="0" stop-color="#DD5D00"/><stop offset="1" stop-color="#DD7D28"/></linearGradient></defs><path fill="url(#gradient_10)" transform="scale(2 2)" d="M301.148 186.028C304.773 191.517 317.451 207.284 318.722 211.082C320.629 214.277 323.057 217.144 325.044 220.302C326.358 222.013 327.3 223.613 328.13 225.614L328.171 225.895C329.893 237.211 332.4 243.96 332.18 256.624C332.137 259.069 331.893 261.607 332.076 264.042C327.834 305.772 309.419 326.525 283.523 355.709C282.399 358.014 276.724 361.169 276.221 362.77L276.542 363.091C272.884 363.696 269.802 366.34 267.481 369.633C265.622 370.389 264.146 371.23 262.531 372.443C253.053 378.158 244.752 383.423 234.782 388.469C232.538 389.123 225.316 391.777 223.492 392.849C195.37 403.021 153.614 409.64 126.047 393.861C111.838 385.728 98.5885 366.707 90.0534 352.8C92.8678 353.195 95.6018 356.896 97.7808 358.663C110.529 368.999 132.581 375.121 148.545 374.481C157.229 372.685 166.064 370.923 174.844 369.633C178.032 370.562 188.922 364.661 192.028 366.281C194.054 365.124 196.074 363.957 198.12 362.837C206.463 369.675 206.895 381.498 211.969 388.061C212.64 387.856 213.214 387.722 213.921 387.88C218.431 385.651 223.438 384.431 227.801 381.856C223.938 381.909 224.984 378.898 223.58 375.178C222.242 371.637 218.849 366.023 218.117 362.958C217.685 361.151 217.706 356.986 216.816 355.709L217.882 355.709C235.438 346.228 242.476 343.669 258.112 327.953C261.549 323.572 267.616 317.416 271.67 313.712C275.523 309.967 277.875 304.633 280.9 300.212C282.769 297.036 285.222 293.839 288.029 291.453C289.653 285.561 298.178 270.305 301.148 262.825C301.746 259.334 302.842 254.042 305.399 251.49C305.839 250.104 306.207 248.701 306.58 247.295C308.12 244.611 309.06 236.982 310.27 233.364C309.644 230.336 310.203 226.745 310.246 223.653C310.394 213.205 308.816 203.202 304.593 193.574C303.475 191.024 301.868 188.751 301.148 186.028Z"/><path fill="#E8AD4A" transform="scale(2 2)" d="M198.12 362.837C206.463 369.675 206.895 381.498 211.969 388.061C212.64 387.856 213.214 387.722 213.921 387.88C209.222 389.638 196.049 394.863 191.845 395.34L191.766 395.207C194.453 394.578 202.204 392.201 204.34 390.886C203.208 387.115 203.02 383.258 201.45 379.577C199.343 374.638 194.621 371.014 192.028 366.281C188.822 368.546 178.674 372.465 174.844 372.443C166.237 372.598 158.591 374.646 148.545 374.481C157.229 372.685 166.064 370.923 174.844 369.633C178.032 370.562 188.922 364.661 192.028 366.281C194.054 365.124 196.074 363.957 198.12 362.837Z"/><defs><linearGradient id="gradient_11" gradientUnits="userSpaceOnUse" x1="327.98346" y1="250.78909" x2="280.30191" y2="311.0481"><stop offset="0" stop-color="#DB6D0F"/><stop offset="1" stop-color="#FFC52A"/></linearGradient></defs><path fill="url(#gradient_11)" transform="scale(2 2)" d="M306.58 247.295C308.12 244.611 309.06 236.982 310.27 233.364C310.302 234.528 310.137 235.48 309.843 236.605C313.198 239.962 320.338 245.263 324.537 248.631C331.667 254.348 329.506 253.064 327.674 262.94C323.42 285.877 312.677 307.901 298.56 326.371C296.924 324.891 281.483 302.84 281.516 301.989C281.39 301.391 281.111 300.787 280.9 300.212C282.769 297.036 285.222 293.839 288.029 291.453C289.653 285.561 298.178 270.305 301.148 262.825C301.746 259.334 302.842 254.042 305.399 251.49C305.839 250.104 306.207 248.701 306.58 247.295Z"/><path fill="#FBD55A" transform="scale(2 2)" d="M305.399 251.49C304.875 253.801 303.026 261.621 301.148 262.825C301.746 259.334 302.842 254.042 305.399 251.49Z"/><path fill="#FBD55A" transform="scale(2 2)" d="M288.029 291.453C287.914 293.596 282.852 299.602 281.516 301.989C281.39 301.391 281.111 300.787 280.9 300.212C282.769 297.036 285.222 293.839 288.029 291.453Z"/><defs><linearGradient id="gradient_12" gradientUnits="userSpaceOnUse" x1="257.76608" y1="300.03125" x2="256.98318" y2="382.29486"><stop offset="0" stop-color="#FADC79"/><stop offset="1" stop-color="#FDEBB0"/></linearGradient></defs><path fill="url(#gradient_12)" transform="scale(2 2)" d="M271.67 313.712C275.523 309.967 277.875 304.633 280.9 300.212C281.111 300.787 281.39 301.391 281.516 301.989C281.483 302.84 296.924 324.891 298.56 326.371C291.475 335.504 280.521 349.182 270.773 355.709C265.105 361.63 237.081 379.039 227.801 381.856C223.938 381.909 224.984 378.898 223.58 375.178C222.242 371.637 218.849 366.023 218.117 362.958C217.685 361.151 217.706 356.986 216.816 355.709L217.882 355.709C235.438 346.228 242.476 343.669 258.112 327.953C261.549 323.572 267.616 317.416 271.67 313.712Z"/><path fill="#E8AD4A" transform="scale(2 2)" d="M203.891 240.24C206.525 241.401 201.839 248.528 200.878 250.858C191.607 273.327 198.416 300.761 209.643 321.239C211.048 323.801 212.428 327.817 214.696 329.678C206.808 334.894 197.44 336.927 189.486 341.783C176.158 314.465 178.55 281.453 193.814 255.379C196.888 250.128 200.574 245.327 203.891 240.24Z"/><path fill="#EBCC96" transform="scale(2 2)" d="M268.857 204.566C272.867 204.643 276.904 204.458 280.9 204.566C284.275 205.865 284.732 217.071 285.014 220.302C285.03 229.778 284.439 240.853 280.9 249.761C273.205 275.005 254.703 298.594 234.782 315.473C228.359 320.73 221.557 325.049 214.696 329.678C212.428 327.817 211.048 323.801 209.643 321.239C198.416 300.761 191.607 273.327 200.878 250.858C201.839 248.528 206.525 241.401 203.891 240.24C221.402 224.379 228.059 215.165 253.945 208.452C260.293 206.806 266.973 206.634 273.162 204.566C271.729 204.652 270.281 204.805 268.857 204.566ZM227.801 257.872C225.281 259.668 224.619 264.81 224.155 267.637C220.61 289.204 227.911 298.074 234.782 315.473C254.703 298.594 273.205 275.005 280.9 249.761C262.216 251.926 247.722 247.352 227.801 257.872Z"/><defs><linearGradient id="gradient_13" gradientUnits="userSpaceOnUse" x1="244.83244" y1="230.41725" x2="277.0939" y2="253.5087"><stop offset="0" stop-color="#6C69AC"/><stop offset="1" stop-color="#94AAD4"/></linearGradient></defs><path fill="url(#gradient_13)" transform="scale(2 2)" d="M227.801 257.872C227.108 251.625 237.565 240.497 241.991 236.53C252.682 226.947 270.503 219.5 285.014 220.302C285.03 229.778 284.439 240.853 280.9 249.761C262.216 251.926 247.722 247.352 227.801 257.872Z"/></svg> 